<svg version="1.2"
	xmlns="http://www.w3.org/2000/svg" viewBox="0 0 1080 1080" width="1080" height="1080">
	<title>New Project</title>
	<style>
		.s0 { fill: none;stroke: #ffffff;stroke-miterlimit:100;stroke-width: 40 } 
	</style>
	<path id="Shape 1" fill-rule="evenodd" class="s0" d="m908.4 304v437q-0.4 0-0.9 0c-18.5 0-33.5 15-33.5 33.5q0 0.8 0 1.5h-701.4v-436c19.7-0.6 35.6-16.3 36.4-36z"/>
	<path id="Shape 2" class="s0" d="m173 339c-18.8 0-34-15.2-34-34 0-18.8 15.2-34 34-34 18.8 0 34 15.2 34 34 0 18.8-15.2 34-34 34z"/>
	<path id="Shape 2 copy" class="s0" d="m908 809c-18.8 0-34-15.2-34-34 0-18.8 15.2-34 34-34 18.8 0 34 15.2 34 34 0 18.8-15.2 34-34 34z"/>
</svg>