<svg version="1.2"
	xmlns="http://www.w3.org/2000/svg" viewBox="0 0 1080 1080" width="1080" height="1080">
	<title>New Project</title>
	<style>
		.s0 { fill: none;stroke: #ffffff;stroke-miterlimit:100;stroke-width: 40 } 
	</style>
	<path id="Shape 1" fill-rule="evenodd" class="s0" d="m866.3 803.8c-18.2-3.3-35.5 8.8-38.9 27q-0.1 0.7-0.2 1.5l-691.1-126.2 78.4-429c19.5 3 38-9.6 42.3-28.8l654.2 119.5q-0.1 0.2-0.1 0.4c-3.4 18.8 8.9 36.7 27.7 40.2z"/>
	<path id="Shape 2" class="s0" d="m215.1 276.2c-18.5-3.3-30.7-21-27.3-39.5 3.3-18.5 21-30.7 39.5-27.3 18.5 3.3 30.7 21 27.3 39.5-3.3 18.5-21 30.7-39.5 27.3z"/>
	<path id="Shape 2 copy 2" class="s0" d="m938.1 408.3c-18.5-3.4-30.7-21.1-27.3-39.6 3.4-18.5 21.1-30.7 39.5-27.3 18.5 3.4 30.8 21.1 27.4 39.6-3.4 18.4-21.1 30.7-39.6 27.3z"/>
	<path id="Shape 2 copy" class="s0" d="m853.7 870.6c-18.5-3.3-30.7-21-27.3-39.5 3.3-18.5 21-30.7 39.5-27.3 18.5 3.3 30.7 21 27.3 39.5-3.3 18.5-21 30.7-39.5 27.3z"/>
</svg>